<svg width="16" height="16" xmlns="http://www.w3.org/2000/svg">
  <path d="M13.667 14.139H2.333a.472.472 0 0 1-.472-.472V6.583H3.75c-.246.354-.33 1.015-.33 1.434a4.597 4.597 0 0 0 4.597 4.587c2.535 0 4.598-2.058 4.598-4.587 0-.419-.06-1.07-.365-1.434h1.889v7.084c0 .26-.212.472-.472.472m-5.65-9.02a2.903 2.903 0 0 1 2.907 2.898c0 1.602-1.301 2.9-2.907 2.9a2.903 2.903 0 0 1-2.905-2.9c0-1.6 1.3-2.899 2.905-2.899m3.76-2.785h1.417c.261 0 .473.212.473.473v1.416c0 .26-.212.472-.473.472h-1.416a.472.472 0 0 1-.472-.472V2.806c0-.261.211-.473.472-.473M13.759.444H2.241c-.992 0-1.797.803-1.797 1.793v11.526c0 .99.805 1.793 1.797 1.793h11.518c.992 0 1.797-.803 1.797-1.793V2.237c0-.99-.805-1.793-1.797-1.793" fill="#070707" fill-rule="evenodd"/>
</svg>
