<svg xmlns="http://www.w3.org/2000/svg" viewBox="0 0 96 96"><g fill="none" fill-rule="evenodd"><path fill="#18A1C3" d="M48,0 C74.509668,0 96,21.490332 96,48 C96,74.509668 74.509668,96 48,96 C21.490332,96 0,74.509668 0,48 C0,32.3010821 7.5365743,18.3624254 19.1890137,9.60473917 L19.079485,9.68730249 L24.8635476,17.3498725 C25.3034248,17.0173072 25.7506854,16.6939927 26.2050402,16.3802184 C16.1735893,23.3077171 9.6,34.8861865 9.6,48 C9.6,69.2077344 26.7922656,86.4 48,86.4 C69.2077344,86.4 86.4,69.2077344 86.4,48 C86.4,26.7922656 69.2077344,9.6 48,9.6 L47.3649858,9.6051445 L47.3649858,9.6051445 L47.9790458,9.59900677 L47.9749293,6.40712277e-06 L47.9749293,6.40712277e-06 L48,0 L48,0 Z"/><path fill="#ADE7F5" d="M47.9749293,6.40712273e-06 L47.9790458,9.59900657 L47.3649858,9.6051445 C38.921674,9.74203993 31.1408007,12.6040099 24.8635476,17.3498725 L19.079485,9.68730249 C27.1161831,3.61124328 37.1245901,0.00555238808 47.9749293,6.40712273e-06 Z"/><path fill="#231F20" fill-rule="nonzero" d="M17.4866607 5.84306681C17.4866607 2.22251621 14.4175733 0 9.35001042 0 4.31813458 0 .785115379 2.93945692.785115379 7.34864231.785115379 10.6107226 2.56946851 12.7973917 4.99618877 13.9444969L5.60286884 14.2312732C2.49809439 14.8048257 0 16.6330245 0 19.6083285 0 23.5156554 3.67576746 25.8815597 9.31432336 25.8815597 15.0956275 25.8815597 18.6286467 22.9062558 18.6286467 18.2819882 18.6286467 14.8765198 16.8086065 12.7615447 13.2755873 11.1484281L12.1692884 10.6824166C14.9885663 10.2880992 17.4866607 8.63913559 17.4866607 5.84306681ZM10.81318 16.5971775C12.7402814 17.4933534 13.9536415 18.4612234 13.9536415 20.4686574 13.9536415 23.085491 12.0622272 24.5193724 9.35001042 24.5193724 6.31661009 24.5193724 4.35382165 22.3685503 4.35382165 19.142317 4.35382165 17.3141182 4.92481465 15.8443898 6.49504541 14.6255905L10.81318 16.5971775ZM8.42214679 8.81837077C6.53073247 7.88634784 5.42443353 6.99017195 5.42443353 4.94689092 5.42443353 2.79606878 6.95897722 1.36218736 9.31432336 1.36218736 11.9908531 1.36218736 13.4183356 3.22623321 13.4183356 5.80721978 13.4183356 7.92219488 12.526159 9.2485352 11.2414247 10.2164052L8.42214679 8.81837077ZM36.6863004.967869963 36.0796204.0358470357C26.2656781.645246642 20.6628093 6.91847788 20.6628093 14.7689787 20.6628093 21.2214451 24.3385767 25.8815597 30.6194998 25.8815597 35.901185 25.8815597 39.9338231 22.4402443 39.9338231 16.7764127 39.9338231 12.1162981 36.8647357 9.28438224 32.6893494 9.28438224 30.1198809 9.28438224 28.1570924 10.2522522 26.9437323 11.2201222 27.7288477 6.09399606 30.5481256 2.29421028 36.6863004.967869963ZM29.3704526 11.7219807C32.7964106 11.7219807 34.4737025 14.7689787 34.4737025 18.6404585 34.4737025 22.0100799 33.2960295 24.4476783 30.9406833 24.4476783 28.0857183 24.4476783 26.6939229 20.3611163 26.6939229 14.6972846 26.6939229 13.8728028 26.7296099 13.048321 26.8009841 12.2596862 27.5147253 11.9729099 28.3712148 11.7219807 29.3704526 11.7219807ZM39.9338231 3.08384082C39.9338231 4.86822659 41.225543 5.82414754 42.6787279 5.82414754 44.1319128 5.82414754 45.4236327 4.86822659 45.4236327 3.08384082 45.4236327 1.31538706 44.1319128.359466108 42.6787279.359466108 41.225543.359466108 39.9338231 1.31538706 39.9338231 3.08384082ZM41.580766 3.08384082C41.580766 1.87300761 41.871403.885222631 42.6787279.885222631 43.5021993.885222631 43.7766898 1.87300761 43.7766898 3.08384082 43.7766898 4.31060604 43.5021993 5.31432304 42.6787279 5.31432304 41.871403 5.31432304 41.580766 4.31060604 41.580766 3.08384082ZM41.742231 11.8623815 42.5495559 11.8623815 49.6217223.359466108 48.8305439.359466108 41.742231 11.8623815ZM51.4462766 9.13800684C51.4462766 7.35362106 50.1384103 6.39770011 48.6852254 6.39770011 47.2320405 6.39770011 45.9403206 7.35362106 45.9403206 9.13800684 45.9403206 10.9064606 47.2320405 11.8623815 48.6852254 11.8623815 50.1384103 11.8623815 51.4462766 10.9064606 51.4462766 9.13800684ZM49.7993338 9.13800684C49.7993338 10.34884 49.5086968 11.336625 48.6852254 11.336625 47.8779004 11.336625 47.5872635 10.34884 47.5872635 9.13800684 47.5872635 7.91124162 47.8779004 6.90752462 48.6852254 6.90752462 49.5086968 6.90752462 49.7993338 7.91124162 49.7993338 9.13800684Z" transform="translate(24.576 34.944)"/></g></svg>