<svg xmlns="http://www.w3.org/2000/svg" viewBox="0 0 14 12">
  <path fill="#070707" fill-rule="evenodd" d="M13.3333333,1.28225341 C12.8429167,1.49971159 12.3154167,1.64676665 11.7620833,1.71300391 C12.3270833,1.37431904 12.7608333,0.838588733 12.965,0.199961546 C12.4366667,0.513234634 11.8508333,0.740690893 11.2279167,0.863583926 C10.72875,0.332019483 10.0179167,0 9.23125,0 C7.72041667,0 6.49583333,1.22434788 6.49583333,2.73489073 C6.49583333,2.94901621 6.52,3.15772608 6.56666667,3.35810421 C4.29291667,3.24395949 2.2775,2.15500224 0.928333333,0.500320451 C0.692916667,0.904409408 0.557916667,1.37431904 0.557916667,1.87547267 C0.557916667,2.82404025 1.04083333,3.66137922 1.77458333,4.1517016 C1.32625,4.13753765 0.904583333,4.01464462 0.535833333,3.80968404 C0.535416667,3.82134846 0.535416667,3.8325963 0.535416667,3.84426072 C0.535416667,5.16942255 1.47833333,6.27462667 2.73,6.52582837 C2.50041667,6.58831635 2.25875,6.62164327 2.00916667,6.62164327 C1.83291667,6.62164327 1.66166667,6.60456323 1.49458333,6.57290265 C1.8425,7.65936038 2.85291667,8.45004166 4.05,8.47212075 C3.11375,9.20572967 1.93416667,9.64272896 0.6525,9.64272896 C0.431666667,9.64272896 0.214166667,9.62981478 0,9.60481959 C1.21041667,10.3805037 2.64833333,10.8333333 4.19333333,10.8333333 C9.225,10.8333333 11.97625,6.66580145 11.97625,3.05191309 C11.97625,2.93318593 11.97375,2.81529193 11.9683333,2.69781452 C12.5029167,2.31247196 12.9666667,1.8308979 13.3333333,1.28225341" transform="translate(.333 .73)"/>
</svg>
